<svg xmlns="http://www.w3.org/2000/svg" xmlns:xlink="http://www.w3.org/1999/xlink" width="275" zoomAndPan="magnify" viewBox="0 0 206.25 30.000001" height="40" preserveAspectRatio="xMidYMid meet" version="1.0"><defs><g/><clipPath id="c14f5d17ae"><path d="M 2.964844 0 L 202.558594 0 L 202.558594 29.03125 L 2.964844 29.03125 Z M 2.964844 0 " clip-rule="nonzero"/></clipPath><clipPath id="32c963f435"><path d="M 10.363281 0 L 202.558594 0 L 202.558594 2 L 10.363281 2 Z M 10.363281 0 " clip-rule="nonzero"/></clipPath><clipPath id="f7db501dba"><path d="M 10.363281 3 L 202.558594 3 L 202.558594 3.628906 L 10.363281 3.628906 Z M 10.363281 3 " clip-rule="nonzero"/></clipPath><clipPath id="74c4421c6f"><path d="M 10.363281 25.28125 L 202.558594 25.28125 L 202.558594 27 L 10.363281 27 Z M 10.363281 25.28125 " clip-rule="nonzero"/></clipPath><clipPath id="bf5612c5cb"><path d="M 10.363281 28 L 202.558594 28 L 202.558594 28.910156 L 10.363281 28.910156 Z M 10.363281 28 " clip-rule="nonzero"/></clipPath><clipPath id="191cd415fc"><path d="M 5.988281 8.566406 L 17.066406 8.566406 L 17.066406 19.105469 L 5.988281 19.105469 Z M 5.988281 8.566406 " clip-rule="nonzero"/></clipPath><clipPath id="e8b1554c37"><path d="M 11.519531 8.566406 L 12.824219 12.59375 L 17.046875 12.59375 L 13.628906 15.082031 L 14.9375 19.105469 L 11.519531 16.617188 L 8.101562 19.105469 L 9.40625 15.082031 L 5.988281 12.59375 L 10.214844 12.59375 Z M 11.519531 8.566406 " clip-rule="nonzero"/></clipPath><clipPath id="5a7d753f01"><path d="M 5.867188 12.214844 L 7.097656 12.214844 L 7.097656 13.445312 L 5.867188 13.445312 Z M 5.867188 12.214844 " clip-rule="nonzero"/></clipPath><clipPath id="35edc42030"><path d="M 6.484375 12.214844 C 6.140625 12.214844 5.867188 12.492188 5.867188 12.832031 C 5.867188 13.171875 6.140625 13.445312 6.484375 13.445312 C 6.824219 13.445312 7.097656 13.171875 7.097656 12.832031 C 7.097656 12.492188 6.824219 12.214844 6.484375 12.214844 Z M 6.484375 12.214844 " clip-rule="nonzero"/></clipPath><clipPath id="8d5a6915b8"><path d="M 16.074219 12.214844 L 17.304688 12.214844 L 17.304688 13.445312 L 16.074219 13.445312 Z M 16.074219 12.214844 " clip-rule="nonzero"/></clipPath><clipPath id="29431d02c0"><path d="M 16.6875 12.214844 C 16.347656 12.214844 16.074219 12.492188 16.074219 12.832031 C 16.074219 13.171875 16.347656 13.445312 16.6875 13.445312 C 17.03125 13.445312 17.304688 13.171875 17.304688 12.832031 C 17.304688 12.492188 17.03125 12.214844 16.6875 12.214844 Z M 16.6875 12.214844 " clip-rule="nonzero"/></clipPath><clipPath id="deb25ed8c1"><path d="M 14.183594 18.316406 L 15.417969 18.316406 L 15.417969 19.546875 L 14.183594 19.546875 Z M 14.183594 18.316406 " clip-rule="nonzero"/></clipPath><clipPath id="7d2bbbed5b"><path d="M 14.800781 18.316406 C 14.460938 18.316406 14.183594 18.59375 14.183594 18.933594 C 14.183594 19.273438 14.460938 19.546875 14.800781 19.546875 C 15.140625 19.546875 15.417969 19.273438 15.417969 18.933594 C 15.417969 18.59375 15.140625 18.316406 14.800781 18.316406 Z M 14.800781 18.316406 " clip-rule="nonzero"/></clipPath><clipPath id="f5c2ea15a0"><path d="M 7.628906 18.316406 L 8.859375 18.316406 L 8.859375 19.546875 L 7.628906 19.546875 Z M 7.628906 18.316406 " clip-rule="nonzero"/></clipPath><clipPath id="408bf0e833"><path d="M 8.242188 18.316406 C 7.902344 18.316406 7.628906 18.59375 7.628906 18.933594 C 7.628906 19.273438 7.902344 19.546875 8.242188 19.546875 C 8.582031 19.546875 8.859375 19.273438 8.859375 18.933594 C 8.859375 18.59375 8.582031 18.316406 8.242188 18.316406 Z M 8.242188 18.316406 " clip-rule="nonzero"/></clipPath><clipPath id="f99d490b4b"><path d="M 10.902344 8.199219 L 12.132812 8.199219 L 12.132812 9.433594 L 10.902344 9.433594 Z M 10.902344 8.199219 " clip-rule="nonzero"/></clipPath><clipPath id="7ea86b2a5a"><path d="M 11.519531 8.199219 C 11.179688 8.199219 10.902344 8.476562 10.902344 8.816406 C 10.902344 9.15625 11.179688 9.433594 11.519531 9.433594 C 11.859375 9.433594 12.132812 9.15625 12.132812 8.816406 C 12.132812 8.476562 11.859375 8.199219 11.519531 8.199219 Z M 11.519531 8.199219 " clip-rule="nonzero"/></clipPath><clipPath id="c113b32874"><path d="M 187.527344 8.566406 L 198.605469 8.566406 L 198.605469 19.105469 L 187.527344 19.105469 Z M 187.527344 8.566406 " clip-rule="nonzero"/></clipPath><clipPath id="3408fc1b19"><path d="M 193.058594 8.566406 L 194.363281 12.59375 L 198.585938 12.59375 L 195.167969 15.082031 L 196.476562 19.105469 L 193.058594 16.617188 L 189.640625 19.105469 L 190.945312 15.082031 L 187.527344 12.59375 L 191.753906 12.59375 Z M 193.058594 8.566406 " clip-rule="nonzero"/></clipPath><clipPath id="67bce80872"><path d="M 187.40625 12.214844 L 188.636719 12.214844 L 188.636719 13.445312 L 187.40625 13.445312 Z M 187.40625 12.214844 " clip-rule="nonzero"/></clipPath><clipPath id="959ff8daa9"><path d="M 188.023438 12.214844 C 187.679688 12.214844 187.40625 12.492188 187.40625 12.832031 C 187.40625 13.171875 187.679688 13.445312 188.023438 13.445312 C 188.363281 13.445312 188.636719 13.171875 188.636719 12.832031 C 188.636719 12.492188 188.363281 12.214844 188.023438 12.214844 Z M 188.023438 12.214844 " clip-rule="nonzero"/></clipPath><clipPath id="6a002a0bb4"><path d="M 197.613281 12.214844 L 198.84375 12.214844 L 198.84375 13.445312 L 197.613281 13.445312 Z M 197.613281 12.214844 " clip-rule="nonzero"/></clipPath><clipPath id="e4bbab6a28"><path d="M 198.226562 12.214844 C 197.886719 12.214844 197.613281 12.492188 197.613281 12.832031 C 197.613281 13.171875 197.886719 13.445312 198.226562 13.445312 C 198.570312 13.445312 198.84375 13.171875 198.84375 12.832031 C 198.84375 12.492188 198.570312 12.214844 198.226562 12.214844 Z M 198.226562 12.214844 " clip-rule="nonzero"/></clipPath><clipPath id="d2fd890b41"><path d="M 195.722656 18.316406 L 196.957031 18.316406 L 196.957031 19.546875 L 195.722656 19.546875 Z M 195.722656 18.316406 " clip-rule="nonzero"/></clipPath><clipPath id="7905dda18f"><path d="M 196.339844 18.316406 C 196 18.316406 195.722656 18.59375 195.722656 18.933594 C 195.722656 19.273438 196 19.546875 196.339844 19.546875 C 196.679688 19.546875 196.957031 19.273438 196.957031 18.933594 C 196.957031 18.59375 196.679688 18.316406 196.339844 18.316406 Z M 196.339844 18.316406 " clip-rule="nonzero"/></clipPath><clipPath id="67103e328c"><path d="M 189.167969 18.316406 L 190.398438 18.316406 L 190.398438 19.546875 L 189.167969 19.546875 Z M 189.167969 18.316406 " clip-rule="nonzero"/></clipPath><clipPath id="c6966b71a5"><path d="M 189.78125 18.316406 C 189.441406 18.316406 189.167969 18.59375 189.167969 18.933594 C 189.167969 19.273438 189.441406 19.546875 189.78125 19.546875 C 190.121094 19.546875 190.398438 19.273438 190.398438 18.933594 C 190.398438 18.59375 190.121094 18.316406 189.78125 18.316406 Z M 189.78125 18.316406 " clip-rule="nonzero"/></clipPath><clipPath id="43594a40d2"><path d="M 192.441406 8.199219 L 193.671875 8.199219 L 193.671875 9.433594 L 192.441406 9.433594 Z M 192.441406 8.199219 " clip-rule="nonzero"/></clipPath><clipPath id="ef855c8c0b"><path d="M 193.058594 8.199219 C 192.71875 8.199219 192.441406 8.476562 192.441406 8.816406 C 192.441406 9.15625 192.71875 9.433594 193.058594 9.433594 C 193.398438 9.433594 193.671875 9.15625 193.671875 8.816406 C 193.671875 8.476562 193.398438 8.199219 193.058594 8.199219 Z M 193.058594 8.199219 " clip-rule="nonzero"/></clipPath><clipPath id="0f1ab0340c"><path d="M 2.964844 25.28125 L 194.042969 25.28125 L 194.042969 27 L 2.964844 27 Z M 2.964844 25.28125 " clip-rule="nonzero"/></clipPath><clipPath id="bf898f23e6"><path d="M 2.964844 28 L 194.042969 28 L 194.042969 28.910156 L 2.964844 28.910156 Z M 2.964844 28 " clip-rule="nonzero"/></clipPath><clipPath id="55d56a7b08"><path d="M 2.964844 0 L 192.542969 0 L 192.542969 2 L 2.964844 2 Z M 2.964844 0 " clip-rule="nonzero"/></clipPath><clipPath id="93cdfa290b"><path d="M 2.964844 3 L 192.542969 3 L 192.542969 3.628906 L 2.964844 3.628906 Z M 2.964844 3 " clip-rule="nonzero"/></clipPath></defs><g clip-path="url(#c14f5d17ae)"><path fill="#ffffff" d="M 2.964844 0 L 202.558594 0 L 202.558594 29.03125 L 2.964844 29.03125 Z M 2.964844 0 " fill-opacity="1" fill-rule="nonzero"/><path fill="#4d0733" d="M 2.964844 0 L 202.558594 0 L 202.558594 29.03125 L 2.964844 29.03125 Z M 2.964844 0 " fill-opacity="1" fill-rule="nonzero"/></g><g clip-path="url(#32c963f435)"><path fill="#f7838d" d="M 8.984375 -2.011719 L 205.679688 -2.011719 L 205.679688 1.636719 L 8.984375 1.636719 Z M 8.984375 -2.011719 " fill-opacity="1" fill-rule="nonzero"/></g><g clip-path="url(#f7db501dba)"><path fill="#f7838d" d="M 8.984375 3.132812 L 205.679688 3.132812 L 205.679688 4.113281 L 8.984375 4.113281 Z M 8.984375 3.132812 " fill-opacity="1" fill-rule="nonzero"/></g><g clip-path="url(#74c4421c6f)"><path fill="#f7838d" d="M 8.984375 23.273438 L 205.679688 23.273438 L 205.679688 26.917969 L 8.984375 26.917969 Z M 8.984375 23.273438 " fill-opacity="1" fill-rule="nonzero"/></g><g clip-path="url(#bf5612c5cb)"><path fill="#f7838d" d="M 8.984375 28.414062 L 205.679688 28.414062 L 205.679688 29.394531 L 8.984375 29.394531 Z M 8.984375 28.414062 " fill-opacity="1" fill-rule="nonzero"/></g><g clip-path="url(#191cd415fc)"><g clip-path="url(#e8b1554c37)"><path fill="#f7838d" d="M 5.988281 8.566406 L 17.066406 8.566406 L 17.066406 19.105469 L 5.988281 19.105469 Z M 5.988281 8.566406 " fill-opacity="1" fill-rule="nonzero"/></g></g><g clip-path="url(#5a7d753f01)"><g clip-path="url(#35edc42030)"><path fill="#f7838d" d="M 5.867188 12.214844 L 7.097656 12.214844 L 7.097656 13.445312 L 5.867188 13.445312 Z M 5.867188 12.214844 " fill-opacity="1" fill-rule="nonzero"/></g></g><g clip-path="url(#8d5a6915b8)"><g clip-path="url(#29431d02c0)"><path fill="#f7838d" d="M 16.074219 12.214844 L 17.304688 12.214844 L 17.304688 13.445312 L 16.074219 13.445312 Z M 16.074219 12.214844 " fill-opacity="1" fill-rule="nonzero"/></g></g><g clip-path="url(#deb25ed8c1)"><g clip-path="url(#7d2bbbed5b)"><path fill="#f7838d" d="M 14.183594 18.316406 L 15.417969 18.316406 L 15.417969 19.546875 L 14.183594 19.546875 Z M 14.183594 18.316406 " fill-opacity="1" fill-rule="nonzero"/></g></g><g clip-path="url(#f5c2ea15a0)"><g clip-path="url(#408bf0e833)"><path fill="#f7838d" d="M 7.628906 18.316406 L 8.859375 18.316406 L 8.859375 19.546875 L 7.628906 19.546875 Z M 7.628906 18.316406 " fill-opacity="1" fill-rule="nonzero"/></g></g><g clip-path="url(#f99d490b4b)"><g clip-path="url(#7ea86b2a5a)"><path fill="#f7838d" d="M 10.902344 8.199219 L 12.132812 8.199219 L 12.132812 9.433594 L 10.902344 9.433594 Z M 10.902344 8.199219 " fill-opacity="1" fill-rule="nonzero"/></g></g><g clip-path="url(#c113b32874)"><g clip-path="url(#3408fc1b19)"><path fill="#f7838d" d="M 187.527344 8.566406 L 198.605469 8.566406 L 198.605469 19.105469 L 187.527344 19.105469 Z M 187.527344 8.566406 " fill-opacity="1" fill-rule="nonzero"/></g></g><g clip-path="url(#67bce80872)"><g clip-path="url(#959ff8daa9)"><path fill="#f7838d" d="M 187.40625 12.214844 L 188.636719 12.214844 L 188.636719 13.445312 L 187.40625 13.445312 Z M 187.40625 12.214844 " fill-opacity="1" fill-rule="nonzero"/></g></g><g clip-path="url(#6a002a0bb4)"><g clip-path="url(#e4bbab6a28)"><path fill="#f7838d" d="M 197.613281 12.214844 L 198.84375 12.214844 L 198.84375 13.445312 L 197.613281 13.445312 Z M 197.613281 12.214844 " fill-opacity="1" fill-rule="nonzero"/></g></g><g clip-path="url(#d2fd890b41)"><g clip-path="url(#7905dda18f)"><path fill="#f7838d" d="M 195.722656 18.316406 L 196.957031 18.316406 L 196.957031 19.546875 L 195.722656 19.546875 Z M 195.722656 18.316406 " fill-opacity="1" fill-rule="nonzero"/></g></g><g clip-path="url(#67103e328c)"><g clip-path="url(#c6966b71a5)"><path fill="#f7838d" d="M 189.167969 18.316406 L 190.398438 18.316406 L 190.398438 19.546875 L 189.167969 19.546875 Z M 189.167969 18.316406 " fill-opacity="1" fill-rule="nonzero"/></g></g><g clip-path="url(#43594a40d2)"><g clip-path="url(#ef855c8c0b)"><path fill="#f7838d" d="M 192.441406 8.199219 L 193.671875 8.199219 L 193.671875 9.433594 L 192.441406 9.433594 Z M 192.441406 8.199219 " fill-opacity="1" fill-rule="nonzero"/></g></g><g clip-path="url(#0f1ab0340c)"><path fill="#f7838d" d="M -0.398438 23.273438 L 196.296875 23.273438 L 196.296875 26.917969 L -0.398438 26.917969 Z M -0.398438 23.273438 " fill-opacity="1" fill-rule="nonzero"/></g><g clip-path="url(#bf898f23e6)"><path fill="#f7838d" d="M -0.398438 28.414062 L 196.296875 28.414062 L 196.296875 29.394531 L -0.398438 29.394531 Z M -0.398438 28.414062 " fill-opacity="1" fill-rule="nonzero"/></g><g clip-path="url(#55d56a7b08)"><path fill="#f7838d" d="M -1.902344 -2.011719 L 194.792969 -2.011719 L 194.792969 1.636719 L -1.902344 1.636719 Z M -1.902344 -2.011719 " fill-opacity="1" fill-rule="nonzero"/></g><g clip-path="url(#93cdfa290b)"><path fill="#f7838d" d="M -1.902344 3.132812 L 194.792969 3.132812 L 194.792969 4.113281 L -1.902344 4.113281 Z M -1.902344 3.132812 " fill-opacity="1" fill-rule="nonzero"/></g><g fill="#ffffff" fill-opacity="1"><g transform="translate(63.080893, 18.593113)"><g><path d="M 4.140625 -0.09375 C 3.890625 0.0625 3.601562 0.140625 3.28125 0.140625 C 2.96875 0.140625 2.6875 0.0625 2.4375 -0.09375 C 2.1875 0.0625 1.957031 0.140625 1.75 0.140625 C 1.539062 0.140625 1.363281 0.117188 1.21875 0.078125 C 1.082031 0.046875 0.960938 0 0.859375 -0.0625 C 0.648438 -0.1875 0.546875 -0.34375 0.546875 -0.53125 C 0.546875 -0.632812 0.570312 -0.722656 0.625 -0.796875 C 0.738281 -0.710938 0.878906 -0.671875 1.046875 -0.671875 C 1.472656 -0.671875 1.769531 -0.851562 1.9375 -1.21875 L 1.9375 -4.8125 C 1.9375 -5.03125 1.890625 -5.195312 1.796875 -5.3125 C 1.648438 -5.488281 1.398438 -5.664062 1.046875 -5.84375 C 1.378906 -6 1.59375 -6.132812 1.6875 -6.25 C 1.851562 -6.4375 1.9375 -6.648438 1.9375 -6.890625 L 1.9375 -9.984375 C 1.769531 -10.359375 1.472656 -10.546875 1.046875 -10.546875 C 0.878906 -10.546875 0.738281 -10.503906 0.625 -10.421875 C 0.570312 -10.492188 0.546875 -10.578125 0.546875 -10.671875 C 0.546875 -10.773438 0.570312 -10.867188 0.625 -10.953125 C 0.6875 -11.035156 0.765625 -11.101562 0.859375 -11.15625 C 1.085938 -11.289062 1.347656 -11.359375 1.640625 -11.359375 C 1.929688 -11.359375 2.195312 -11.28125 2.4375 -11.125 C 2.695312 -11.28125 2.984375 -11.359375 3.296875 -11.359375 C 3.609375 -11.359375 3.890625 -11.28125 4.140625 -11.125 C 4.691406 -11.332031 5.300781 -11.4375 5.96875 -11.4375 C 6.644531 -11.4375 7.207031 -11.375 7.65625 -11.25 C 8.113281 -11.132812 8.507812 -10.960938 8.84375 -10.734375 C 9.5 -10.273438 9.910156 -9.640625 10.078125 -8.828125 C 10.140625 -8.472656 10.367188 -8.203125 10.765625 -8.015625 C 10.390625 -7.796875 10.140625 -7.453125 10.015625 -6.984375 C 9.773438 -6.015625 9.175781 -5.410156 8.21875 -5.171875 C 8.71875 -5.046875 9.125 -4.773438 9.4375 -4.359375 C 9.757812 -3.929688 9.921875 -3.429688 9.921875 -2.859375 L 9.921875 -2.125 C 9.921875 -1.425781 10.148438 -0.972656 10.609375 -0.765625 C 10.742188 -0.703125 10.890625 -0.671875 11.046875 -0.671875 C 11.210938 -0.671875 11.347656 -0.710938 11.453125 -0.796875 C 11.503906 -0.722656 11.53125 -0.632812 11.53125 -0.53125 C 11.53125 -0.4375 11.503906 -0.347656 11.453125 -0.265625 C 11.410156 -0.179688 11.347656 -0.113281 11.265625 -0.0625 C 11.085938 0.0703125 10.878906 0.140625 10.640625 0.140625 C 10.410156 0.140625 10.179688 0.078125 9.953125 -0.046875 C 9.546875 0.179688 9.164062 0.203125 8.8125 0.015625 C 8.664062 0.0976562 8.515625 0.140625 8.359375 0.140625 C 8.210938 0.140625 8.070312 0.101562 7.9375 0.03125 C 7.800781 -0.03125 7.675781 -0.140625 7.5625 -0.296875 C 7.332031 -0.628906 7.21875 -1.144531 7.21875 -1.84375 L 7.21875 -2.390625 C 7.21875 -3.515625 6.894531 -4.25 6.25 -4.59375 C 6.039062 -4.707031 5.789062 -4.765625 5.5 -4.765625 L 4.640625 -4.765625 L 4.640625 -1.1875 C 4.773438 -0.84375 5.023438 -0.671875 5.390625 -0.671875 C 5.554688 -0.671875 5.695312 -0.710938 5.8125 -0.796875 C 5.863281 -0.722656 5.890625 -0.613281 5.890625 -0.46875 C 5.890625 -0.320312 5.8125 -0.179688 5.65625 -0.046875 C 5.5 0.078125 5.265625 0.140625 4.953125 0.140625 C 4.648438 0.140625 4.378906 0.0625 4.140625 -0.09375 Z M 6.046875 -10.46875 C 5.109375 -10.46875 4.640625 -10.101562 4.640625 -9.375 L 4.640625 -6.375 C 4.640625 -6.113281 4.738281 -5.941406 4.9375 -5.859375 C 5.132812 -5.773438 5.414062 -5.734375 5.78125 -5.734375 C 6.15625 -5.734375 6.414062 -5.753906 6.5625 -5.796875 C 6.71875 -5.835938 6.847656 -5.910156 6.953125 -6.015625 C 7.171875 -6.222656 7.28125 -6.570312 7.28125 -7.0625 L 7.28125 -9.203125 C 7.28125 -9.816406 7.03125 -10.207031 6.53125 -10.375 C 6.375 -10.4375 6.210938 -10.46875 6.046875 -10.46875 Z M 7.78125 -10 C 7.925781 -9.65625 8 -9.101562 8 -8.34375 C 8 -7.050781 7.941406 -6.28125 7.828125 -6.03125 C 8.085938 -6.082031 8.28125 -6.441406 8.40625 -7.109375 L 8.46875 -7.40625 C 8.519531 -7.71875 8.675781 -7.921875 8.9375 -8.015625 C 8.738281 -8.078125 8.613281 -8.148438 8.5625 -8.234375 C 8.5 -8.335938 8.445312 -8.515625 8.40625 -8.765625 C 8.363281 -9.015625 8.316406 -9.210938 8.265625 -9.359375 C 8.210938 -9.515625 8.160156 -9.632812 8.109375 -9.71875 C 8.015625 -9.875 7.90625 -9.96875 7.78125 -10 Z M 2.640625 -1.9375 C 2.890625 -2.03125 3.023438 -2.351562 3.046875 -2.90625 C 3.078125 -3.445312 3.09375 -4.203125 3.09375 -5.171875 C 3.09375 -6.140625 3.09375 -6.785156 3.09375 -7.109375 C 3.09375 -7.429688 3.085938 -7.6875 3.078125 -7.875 C 3.066406 -8.457031 3.007812 -8.804688 2.90625 -8.921875 C 2.8125 -9.046875 2.722656 -9.128906 2.640625 -9.171875 C 2.640625 -7.460938 2.613281 -6.492188 2.5625 -6.265625 C 2.488281 -6.066406 2.320312 -5.925781 2.0625 -5.84375 C 2.351562 -5.738281 2.519531 -5.613281 2.5625 -5.46875 C 2.613281 -5.238281 2.640625 -4.378906 2.640625 -2.890625 Z M 7.703125 -3.953125 C 7.898438 -3.734375 8 -3.460938 8 -3.140625 L 8 -2.171875 C 8 -1.359375 8.160156 -0.925781 8.484375 -0.875 C 8.566406 -0.863281 8.648438 -0.867188 8.734375 -0.890625 C 8.554688 -1.160156 8.46875 -1.445312 8.46875 -1.75 L 8.46875 -2.78125 C 8.46875 -3.164062 8.414062 -3.4375 8.3125 -3.59375 C 8.125 -3.875 7.921875 -3.992188 7.703125 -3.953125 Z M 7.703125 -3.953125 "/></g></g></g><g fill="#ffffff" fill-opacity="1"><g transform="translate(74.458277, 18.593113)"><g><path d="M 3.296875 0.140625 C 2.972656 0.140625 2.6875 0.0625 2.4375 -0.09375 C 2.1875 0.0625 1.957031 0.140625 1.75 0.140625 C 1.539062 0.140625 1.363281 0.117188 1.21875 0.078125 C 1.082031 0.046875 0.960938 0 0.859375 -0.0625 C 0.648438 -0.1875 0.546875 -0.34375 0.546875 -0.53125 C 0.546875 -0.632812 0.570312 -0.722656 0.625 -0.796875 C 0.738281 -0.710938 0.878906 -0.671875 1.046875 -0.671875 C 1.472656 -0.671875 1.769531 -0.851562 1.9375 -1.21875 L 1.9375 -4.8125 C 1.9375 -5.03125 1.890625 -5.195312 1.796875 -5.3125 C 1.648438 -5.488281 1.398438 -5.664062 1.046875 -5.84375 C 1.378906 -6 1.59375 -6.132812 1.6875 -6.25 C 1.851562 -6.4375 1.9375 -6.648438 1.9375 -6.890625 L 1.9375 -9.984375 C 1.769531 -10.359375 1.472656 -10.546875 1.046875 -10.546875 C 0.878906 -10.546875 0.738281 -10.503906 0.625 -10.421875 C 0.570312 -10.492188 0.546875 -10.578125 0.546875 -10.671875 C 0.546875 -10.773438 0.570312 -10.867188 0.625 -10.953125 C 0.6875 -11.035156 0.765625 -11.101562 0.859375 -11.15625 C 1.085938 -11.289062 1.347656 -11.359375 1.640625 -11.359375 C 1.929688 -11.359375 2.195312 -11.28125 2.4375 -11.125 C 2.695312 -11.28125 2.988281 -11.359375 3.3125 -11.359375 C 3.644531 -11.359375 3.941406 -11.265625 4.203125 -11.078125 C 4.722656 -11.265625 5.320312 -11.359375 6 -11.359375 C 6.507812 -11.359375 6.941406 -11.3125 7.296875 -11.21875 L 7.953125 -11.046875 C 8.023438 -11.023438 8.097656 -11.015625 8.171875 -11.015625 C 8.304688 -11.015625 8.375 -11.113281 8.375 -11.3125 C 8.375 -11.351562 8.359375 -11.4375 8.328125 -11.5625 C 8.460938 -11.582031 8.632812 -11.59375 8.84375 -11.59375 C 9.0625 -11.59375 9.242188 -11.519531 9.390625 -11.375 C 9.535156 -11.238281 9.609375 -11.039062 9.609375 -10.78125 C 9.609375 -10.519531 9.5625 -10.328125 9.46875 -10.203125 C 9.59375 -10.003906 9.65625 -9.765625 9.65625 -9.484375 C 9.65625 -9.203125 9.5625 -8.96875 9.375 -8.78125 C 9.4375 -8.632812 9.46875 -8.488281 9.46875 -8.34375 C 9.46875 -8.207031 9.441406 -8.082031 9.390625 -7.96875 C 9.347656 -7.851562 9.289062 -7.757812 9.21875 -7.6875 C 9.082031 -7.539062 8.945312 -7.46875 8.8125 -7.46875 C 8.601562 -7.46875 8.414062 -7.515625 8.25 -7.609375 C 8.3125 -7.722656 8.34375 -7.894531 8.34375 -8.125 C 8.34375 -8.664062 8.207031 -9.132812 7.9375 -9.53125 C 7.570312 -10.09375 7.019531 -10.375 6.28125 -10.375 C 5.90625 -10.375 5.566406 -10.28125 5.265625 -10.09375 C 4.972656 -9.914062 4.765625 -9.660156 4.640625 -9.328125 L 4.640625 -6.484375 C 4.804688 -6.378906 4.960938 -6.328125 5.109375 -6.328125 C 5.265625 -6.328125 5.378906 -6.328125 5.453125 -6.328125 C 5.535156 -6.335938 5.613281 -6.347656 5.6875 -6.359375 C 5.882812 -6.390625 6.039062 -6.429688 6.15625 -6.484375 C 6.351562 -6.578125 6.453125 -6.816406 6.453125 -7.203125 C 6.453125 -7.410156 6.40625 -7.578125 6.3125 -7.703125 C 6.40625 -7.765625 6.523438 -7.796875 6.671875 -7.796875 C 6.992188 -7.796875 7.234375 -7.664062 7.390625 -7.40625 C 7.441406 -7.3125 7.46875 -7.207031 7.46875 -7.09375 C 7.46875 -6.976562 7.4375 -6.835938 7.375 -6.671875 C 7.570312 -6.441406 7.671875 -6.171875 7.671875 -5.859375 C 7.671875 -5.546875 7.570312 -5.273438 7.375 -5.046875 C 7.4375 -4.878906 7.46875 -4.726562 7.46875 -4.59375 C 7.46875 -4.457031 7.4375 -4.328125 7.375 -4.203125 C 7.320312 -4.085938 7.257812 -3.992188 7.1875 -3.921875 C 7.03125 -3.773438 6.859375 -3.703125 6.671875 -3.703125 C 6.535156 -3.703125 6.414062 -3.742188 6.3125 -3.828125 C 6.40625 -3.992188 6.453125 -4.191406 6.453125 -4.421875 C 6.453125 -4.878906 6.328125 -5.160156 6.078125 -5.265625 C 5.859375 -5.359375 5.609375 -5.40625 5.328125 -5.40625 C 5.046875 -5.40625 4.816406 -5.351562 4.640625 -5.25 L 4.640625 -1.578125 C 4.921875 -1.078125 5.46875 -0.828125 6.28125 -0.828125 C 7.195312 -0.828125 7.820312 -1.113281 8.15625 -1.6875 C 8.539062 -2.332031 8.734375 -3.03125 8.734375 -3.78125 C 8.734375 -3.988281 8.71875 -4.15625 8.6875 -4.28125 C 8.800781 -4.394531 8.925781 -4.453125 9.0625 -4.453125 C 9.195312 -4.453125 9.296875 -4.429688 9.359375 -4.390625 C 9.429688 -4.359375 9.492188 -4.316406 9.546875 -4.265625 C 9.660156 -4.128906 9.71875 -3.992188 9.71875 -3.859375 L 9.671875 -3.5 C 9.671875 -3.40625 9.695312 -3.332031 9.75 -3.28125 C 9.84375 -3.175781 9.890625 -3.078125 9.890625 -2.984375 C 9.890625 -2.898438 9.863281 -2.789062 9.8125 -2.65625 C 9.925781 -2.59375 10.023438 -2.5 10.109375 -2.375 C 10.203125 -2.25 10.25 -2.125 10.25 -2 C 10.25 -1.71875 10.128906 -1.46875 9.890625 -1.25 C 9.992188 -1.101562 10.046875 -0.890625 10.046875 -0.609375 C 10.046875 -0.335938 9.96875 -0.109375 9.8125 0.078125 C 9.65625 0.273438 9.445312 0.375 9.1875 0.375 C 9.050781 0.375 8.910156 0.363281 8.765625 0.34375 C 8.785156 0.226562 8.796875 0.117188 8.796875 0.015625 C 8.796875 -0.210938 8.691406 -0.328125 8.484375 -0.328125 C 8.253906 -0.328125 8.023438 -0.28125 7.796875 -0.1875 C 7.253906 0.03125 6.632812 0.140625 5.9375 0.140625 C 5.25 0.140625 4.664062 0.0507812 4.1875 -0.125 C 3.9375 0.0507812 3.640625 0.140625 3.296875 0.140625 Z M 2.640625 -1.9375 C 2.890625 -2.03125 3.023438 -2.351562 3.046875 -2.90625 C 3.078125 -3.445312 3.09375 -4.203125 3.09375 -5.171875 C 3.09375 -6.140625 3.09375 -6.785156 3.09375 -7.109375 C 3.09375 -7.429688 3.085938 -7.6875 3.078125 -7.875 C 3.066406 -8.457031 3.007812 -8.804688 2.90625 -8.921875 C 2.8125 -9.046875 2.722656 -9.128906 2.640625 -9.171875 C 2.640625 -7.460938 2.613281 -6.492188 2.5625 -6.265625 C 2.488281 -6.066406 2.320312 -5.925781 2.0625 -5.84375 C 2.351562 -5.738281 2.519531 -5.613281 2.5625 -5.46875 C 2.613281 -5.238281 2.640625 -4.378906 2.640625 -2.890625 Z M 4.5 -2.015625 C 4.5 -2.003906 4.5 -1.992188 4.5 -1.984375 Z M 4.5 -2.015625 "/></g></g></g><g fill="#ffffff" fill-opacity="1"><g transform="translate(85.015142, 18.593113)"><g><path d="M 4.234375 -0.078125 C 3.984375 0.0664062 3.691406 0.140625 3.359375 0.140625 C 3.023438 0.140625 2.738281 0.0625 2.5 -0.09375 C 2.25 0.0625 2.015625 0.140625 1.796875 0.140625 C 1.585938 0.140625 1.414062 0.117188 1.28125 0.078125 C 1.144531 0.046875 1.023438 0 0.921875 -0.0625 C 0.703125 -0.1875 0.59375 -0.34375 0.59375 -0.53125 C 0.59375 -0.632812 0.625 -0.722656 0.6875 -0.796875 C 0.789062 -0.710938 0.925781 -0.671875 1.09375 -0.671875 C 1.53125 -0.671875 1.832031 -0.851562 2 -1.21875 L 2 -4.8125 C 2 -5.03125 1.953125 -5.195312 1.859375 -5.3125 C 1.710938 -5.488281 1.457031 -5.664062 1.09375 -5.84375 C 1.425781 -6 1.644531 -6.132812 1.75 -6.25 C 1.914062 -6.4375 2 -6.648438 2 -6.890625 L 2 -9.984375 C 1.832031 -10.359375 1.53125 -10.546875 1.09375 -10.546875 C 0.894531 -10.546875 0.738281 -10.503906 0.625 -10.421875 C 0.570312 -10.492188 0.546875 -10.578125 0.546875 -10.671875 C 0.546875 -10.773438 0.578125 -10.867188 0.640625 -10.953125 C 0.703125 -11.035156 0.785156 -11.101562 0.890625 -11.15625 C 1.117188 -11.289062 1.378906 -11.359375 1.671875 -11.359375 C 1.972656 -11.359375 2.25 -11.28125 2.5 -11.125 C 2.75 -11.28125 3.035156 -11.359375 3.359375 -11.359375 C 3.691406 -11.359375 3.992188 -11.265625 4.265625 -11.078125 C 4.804688 -11.265625 5.453125 -11.359375 6.203125 -11.359375 C 6.671875 -11.359375 7.078125 -11.3125 7.421875 -11.21875 L 8.046875 -11.046875 C 8.128906 -11.023438 8.207031 -11.015625 8.28125 -11.015625 C 8.414062 -11.015625 8.484375 -11.113281 8.484375 -11.3125 C 8.484375 -11.351562 8.46875 -11.4375 8.4375 -11.5625 C 8.570312 -11.582031 8.742188 -11.59375 8.953125 -11.59375 C 9.160156 -11.59375 9.335938 -11.519531 9.484375 -11.375 C 9.628906 -11.238281 9.703125 -11.035156 9.703125 -10.765625 C 9.703125 -10.492188 9.648438 -10.285156 9.546875 -10.140625 C 9.691406 -9.910156 9.765625 -9.644531 9.765625 -9.34375 C 9.765625 -9.039062 9.664062 -8.78125 9.46875 -8.5625 C 9.53125 -8.40625 9.5625 -8.25 9.5625 -8.09375 C 9.5625 -7.9375 9.539062 -7.796875 9.5 -7.671875 C 9.457031 -7.546875 9.398438 -7.441406 9.328125 -7.359375 C 9.191406 -7.191406 9.03125 -7.109375 8.84375 -7.109375 C 8.664062 -7.109375 8.5 -7.148438 8.34375 -7.234375 C 8.414062 -7.367188 8.453125 -7.523438 8.453125 -7.703125 C 8.453125 -7.890625 8.441406 -8.046875 8.421875 -8.171875 C 8.398438 -8.296875 8.375 -8.425781 8.34375 -8.5625 C 8.269531 -8.875 8.15625 -9.175781 8 -9.46875 C 7.675781 -10.070312 7.171875 -10.375 6.484375 -10.375 C 5.628906 -10.375 5.03125 -10.148438 4.6875 -9.703125 L 4.6875 -6.3125 C 4.84375 -6.226562 4.988281 -6.1875 5.125 -6.1875 C 5.257812 -6.1875 5.367188 -6.1875 5.453125 -6.1875 C 5.535156 -6.195312 5.617188 -6.207031 5.703125 -6.21875 C 5.910156 -6.238281 6.066406 -6.273438 6.171875 -6.328125 C 6.378906 -6.429688 6.484375 -6.65625 6.484375 -7 C 6.484375 -7.34375 6.429688 -7.597656 6.328125 -7.765625 C 6.410156 -7.835938 6.535156 -7.875 6.703125 -7.875 C 7.023438 -7.875 7.257812 -7.707031 7.40625 -7.375 C 7.46875 -7.25 7.5 -7.117188 7.5 -6.984375 C 7.5 -6.847656 7.46875 -6.695312 7.40625 -6.53125 C 7.601562 -6.300781 7.703125 -6.03125 7.703125 -5.71875 C 7.703125 -5.40625 7.601562 -5.128906 7.40625 -4.890625 C 7.46875 -4.722656 7.5 -4.570312 7.5 -4.4375 C 7.5 -4.3125 7.46875 -4.1875 7.40625 -4.0625 C 7.351562 -3.9375 7.289062 -3.835938 7.21875 -3.765625 C 7.0625 -3.628906 6.890625 -3.5625 6.703125 -3.5625 C 6.566406 -3.5625 6.441406 -3.601562 6.328125 -3.6875 C 6.429688 -3.851562 6.484375 -4.050781 6.484375 -4.28125 C 6.484375 -4.738281 6.359375 -5.019531 6.109375 -5.125 C 5.898438 -5.207031 5.648438 -5.25 5.359375 -5.25 C 5.066406 -5.25 4.84375 -5.207031 4.6875 -5.125 L 4.6875 -1.25 C 4.875 -0.863281 5.222656 -0.671875 5.734375 -0.671875 C 5.898438 -0.671875 6.039062 -0.710938 6.15625 -0.796875 C 6.207031 -0.722656 6.234375 -0.632812 6.234375 -0.53125 C 6.234375 -0.4375 6.203125 -0.347656 6.140625 -0.265625 C 6.085938 -0.179688 6.007812 -0.113281 5.90625 -0.0625 C 5.6875 0.0703125 5.421875 0.140625 5.109375 0.140625 C 4.804688 0.140625 4.515625 0.0664062 4.234375 -0.078125 Z M 2.703125 -1.9375 C 2.941406 -2.03125 3.078125 -2.351562 3.109375 -2.90625 C 3.128906 -3.445312 3.140625 -4.203125 3.140625 -5.171875 C 3.140625 -6.140625 3.140625 -6.785156 3.140625 -7.109375 C 3.140625 -7.429688 3.132812 -7.6875 3.125 -7.875 C 3.113281 -8.457031 3.0625 -8.804688 2.96875 -8.921875 C 2.875 -9.046875 2.785156 -9.128906 2.703125 -9.171875 C 2.703125 -7.460938 2.671875 -6.492188 2.609375 -6.265625 C 2.535156 -6.066406 2.367188 -5.925781 2.109375 -5.84375 C 2.398438 -5.738281 2.566406 -5.613281 2.609375 -5.46875 C 2.671875 -5.238281 2.703125 -4.378906 2.703125 -2.890625 Z M 2.703125 -1.9375 "/></g></g></g><g fill="#ffffff" fill-opacity="1"><g transform="translate(94.91266, 18.593113)"><g><path d="M 3.296875 0.140625 C 2.972656 0.140625 2.6875 0.0625 2.4375 -0.09375 C 2.1875 0.0625 1.957031 0.140625 1.75 0.140625 C 1.539062 0.140625 1.363281 0.117188 1.21875 0.078125 C 1.082031 0.046875 0.960938 0 0.859375 -0.0625 C 0.648438 -0.1875 0.546875 -0.34375 0.546875 -0.53125 C 0.546875 -0.632812 0.570312 -0.722656 0.625 -0.796875 C 0.738281 -0.710938 0.878906 -0.671875 1.046875 -0.671875 C 1.472656 -0.671875 1.769531 -0.851562 1.9375 -1.21875 L 1.9375 -4.8125 C 1.9375 -5.03125 1.890625 -5.195312 1.796875 -5.3125 C 1.648438 -5.488281 1.398438 -5.664062 1.046875 -5.84375 C 1.378906 -6 1.59375 -6.132812 1.6875 -6.25 C 1.851562 -6.4375 1.9375 -6.648438 1.9375 -6.890625 L 1.9375 -9.984375 C 1.769531 -10.359375 1.472656 -10.546875 1.046875 -10.546875 C 0.878906 -10.546875 0.738281 -10.503906 0.625 -10.421875 C 0.570312 -10.492188 0.546875 -10.578125 0.546875 -10.671875 C 0.546875 -10.773438 0.570312 -10.867188 0.625 -10.953125 C 0.6875 -11.035156 0.765625 -11.101562 0.859375 -11.15625 C 1.085938 -11.289062 1.347656 -11.359375 1.640625 -11.359375 C 1.929688 -11.359375 2.195312 -11.28125 2.4375 -11.125 C 2.695312 -11.28125 2.984375 -11.359375 3.296875 -11.359375 C 3.609375 -11.359375 3.890625 -11.28125 4.140625 -11.125 C 4.410156 -11.28125 4.660156 -11.359375 4.890625 -11.359375 C 5.117188 -11.359375 5.300781 -11.335938 5.4375 -11.296875 C 5.570312 -11.265625 5.691406 -11.21875 5.796875 -11.15625 C 6.003906 -11.03125 6.109375 -10.875 6.109375 -10.6875 C 6.109375 -10.582031 6.082031 -10.492188 6.03125 -10.421875 C 5.914062 -10.503906 5.769531 -10.546875 5.59375 -10.546875 C 5.414062 -10.546875 5.234375 -10.5 5.046875 -10.40625 C 4.859375 -10.3125 4.722656 -10.171875 4.640625 -9.984375 L 4.640625 -6.890625 C 4.640625 -6.648438 4.691406 -6.472656 4.796875 -6.359375 C 4.953125 -6.171875 5.195312 -6 5.53125 -5.84375 C 5.175781 -5.664062 4.953125 -5.519531 4.859375 -5.40625 C 4.710938 -5.226562 4.640625 -5.03125 4.640625 -4.8125 L 4.640625 -1.609375 C 4.960938 -1.085938 5.363281 -0.828125 5.84375 -0.828125 C 7.039062 -0.828125 7.8125 -1.335938 8.15625 -2.359375 C 8.3125 -2.804688 8.390625 -3.21875 8.390625 -3.59375 C 8.390625 -3.96875 8.335938 -4.21875 8.234375 -4.34375 C 8.347656 -4.4375 8.460938 -4.484375 8.578125 -4.484375 C 8.703125 -4.484375 8.8125 -4.457031 8.90625 -4.40625 C 9.007812 -4.363281 9.101562 -4.289062 9.1875 -4.1875 C 9.363281 -3.988281 9.453125 -3.753906 9.453125 -3.484375 C 9.453125 -3.210938 9.429688 -3.003906 9.390625 -2.859375 C 9.609375 -2.671875 9.71875 -2.40625 9.71875 -2.0625 C 9.71875 -1.726562 9.625 -1.457031 9.4375 -1.25 C 9.59375 -1.039062 9.671875 -0.851562 9.671875 -0.6875 C 9.671875 -0.519531 9.644531 -0.375 9.59375 -0.25 C 9.550781 -0.132812 9.492188 -0.03125 9.421875 0.0625 C 9.234375 0.25 9.007812 0.34375 8.75 0.34375 C 8.625 0.34375 8.503906 0.316406 8.390625 0.265625 C 8.410156 0.160156 8.421875 0.0507812 8.421875 -0.0625 C 8.421875 -0.28125 8.316406 -0.390625 8.109375 -0.390625 C 7.960938 -0.390625 7.753906 -0.332031 7.484375 -0.21875 C 6.960938 0.0195312 6.367188 0.140625 5.703125 0.140625 C 5.046875 0.140625 4.535156 0.0546875 4.171875 -0.109375 C 3.910156 0.0546875 3.617188 0.140625 3.296875 0.140625 Z M 2.640625 -1.9375 C 2.890625 -2.03125 3.023438 -2.351562 3.046875 -2.90625 C 3.078125 -3.445312 3.09375 -4.203125 3.09375 -5.171875 C 3.09375 -6.140625 3.09375 -6.785156 3.09375 -7.109375 C 3.09375 -7.429688 3.085938 -7.6875 3.078125 -7.875 C 3.066406 -8.457031 3.007812 -8.804688 2.90625 -8.921875 C 2.8125 -9.046875 2.722656 -9.128906 2.640625 -9.171875 C 2.640625 -7.460938 2.613281 -6.492188 2.5625 -6.265625 C 2.488281 -6.066406 2.320312 -5.925781 2.0625 -5.84375 C 2.351562 -5.738281 2.519531 -5.613281 2.5625 -5.46875 C 2.613281 -5.238281 2.640625 -4.378906 2.640625 -2.890625 Z M 2.640625 -1.9375 "/></g></g></g><g fill="#ffffff" fill-opacity="1"><g transform="translate(104.810179, 18.593113)"><g><path d="M 3.296875 0.140625 C 2.972656 0.140625 2.6875 0.0625 2.4375 -0.09375 C 2.1875 0.0625 1.957031 0.140625 1.75 0.140625 C 1.539062 0.140625 1.363281 0.117188 1.21875 0.078125 C 1.082031 0.046875 0.960938 0 0.859375 -0.0625 C 0.648438 -0.1875 0.546875 -0.34375 0.546875 -0.53125 C 0.546875 -0.632812 0.570312 -0.722656 0.625 -0.796875 C 0.738281 -0.710938 0.878906 -0.671875 1.046875 -0.671875 C 1.472656 -0.671875 1.769531 -0.851562 1.9375 -1.21875 L 1.9375 -4.8125 C 1.9375 -5.03125 1.890625 -5.195312 1.796875 -5.3125 C 1.648438 -5.488281 1.398438 -5.664062 1.046875 -5.84375 C 1.378906 -6 1.59375 -6.132812 1.6875 -6.25 C 1.851562 -6.4375 1.9375 -6.648438 1.9375 -6.890625 L 1.9375 -9.984375 C 1.769531 -10.359375 1.472656 -10.546875 1.046875 -10.546875 C 0.878906 -10.546875 0.738281 -10.503906 0.625 -10.421875 C 0.570312 -10.492188 0.546875 -10.578125 0.546875 -10.671875 C 0.546875 -10.773438 0.570312 -10.867188 0.625 -10.953125 C 0.6875 -11.035156 0.765625 -11.101562 0.859375 -11.15625 C 1.085938 -11.289062 1.347656 -11.359375 1.640625 -11.359375 C 1.929688 -11.359375 2.195312 -11.28125 2.4375 -11.125 C 2.695312 -11.28125 2.988281 -11.359375 3.3125 -11.359375 C 3.644531 -11.359375 3.941406 -11.265625 4.203125 -11.078125 C 4.722656 -11.265625 5.320312 -11.359375 6 -11.359375 C 6.507812 -11.359375 6.941406 -11.3125 7.296875 -11.21875 L 7.953125 -11.046875 C 8.023438 -11.023438 8.097656 -11.015625 8.171875 -11.015625 C 8.304688 -11.015625 8.375 -11.113281 8.375 -11.3125 C 8.375 -11.351562 8.359375 -11.4375 8.328125 -11.5625 C 8.460938 -11.582031 8.632812 -11.59375 8.84375 -11.59375 C 9.0625 -11.59375 9.242188 -11.519531 9.390625 -11.375 C 9.535156 -11.238281 9.609375 -11.039062 9.609375 -10.78125 C 9.609375 -10.519531 9.5625 -10.328125 9.46875 -10.203125 C 9.59375 -10.003906 9.65625 -9.765625 9.65625 -9.484375 C 9.65625 -9.203125 9.5625 -8.96875 9.375 -8.78125 C 9.4375 -8.632812 9.46875 -8.488281 9.46875 -8.34375 C 9.46875 -8.207031 9.441406 -8.082031 9.390625 -7.96875 C 9.347656 -7.851562 9.289062 -7.757812 9.21875 -7.6875 C 9.082031 -7.539062 8.945312 -7.46875 8.8125 -7.46875 C 8.601562 -7.46875 8.414062 -7.515625 8.25 -7.609375 C 8.3125 -7.722656 8.34375 -7.894531 8.34375 -8.125 C 8.34375 -8.664062 8.207031 -9.132812 7.9375 -9.53125 C 7.570312 -10.09375 7.019531 -10.375 6.28125 -10.375 C 5.90625 -10.375 5.566406 -10.28125 5.265625 -10.09375 C 4.972656 -9.914062 4.765625 -9.660156 4.640625 -9.328125 L 4.640625 -6.484375 C 4.804688 -6.378906 4.960938 -6.328125 5.109375 -6.328125 C 5.265625 -6.328125 5.378906 -6.328125 5.453125 -6.328125 C 5.535156 -6.335938 5.613281 -6.347656 5.6875 -6.359375 C 5.882812 -6.390625 6.039062 -6.429688 6.15625 -6.484375 C 6.351562 -6.578125 6.453125 -6.816406 6.453125 -7.203125 C 6.453125 -7.410156 6.40625 -7.578125 6.3125 -7.703125 C 6.40625 -7.765625 6.523438 -7.796875 6.671875 -7.796875 C 6.992188 -7.796875 7.234375 -7.664062 7.390625 -7.40625 C 7.441406 -7.3125 7.46875 -7.207031 7.46875 -7.09375 C 7.46875 -6.976562 7.4375 -6.835938 7.375 -6.671875 C 7.570312 -6.441406 7.671875 -6.171875 7.671875 -5.859375 C 7.671875 -5.546875 7.570312 -5.273438 7.375 -5.046875 C 7.4375 -4.878906 7.46875 -4.726562 7.46875 -4.59375 C 7.46875 -4.457031 7.4375 -4.328125 7.375 -4.203125 C 7.320312 -4.085938 7.257812 -3.992188 7.1875 -3.921875 C 7.03125 -3.773438 6.859375 -3.703125 6.671875 -3.703125 C 6.535156 -3.703125 6.414062 -3.742188 6.3125 -3.828125 C 6.40625 -3.992188 6.453125 -4.191406 6.453125 -4.421875 C 6.453125 -4.878906 6.328125 -5.160156 6.078125 -5.265625 C 5.859375 -5.359375 5.609375 -5.40625 5.328125 -5.40625 C 5.046875 -5.40625 4.816406 -5.351562 4.640625 -5.25 L 4.640625 -1.578125 C 4.921875 -1.078125 5.46875 -0.828125 6.28125 -0.828125 C 7.195312 -0.828125 7.820312 -1.113281 8.15625 -1.6875 C 8.539062 -2.332031 8.734375 -3.03125 8.734375 -3.78125 C 8.734375 -3.988281 8.71875 -4.15625 8.6875 -4.28125 C 8.800781 -4.394531 8.925781 -4.453125 9.0625 -4.453125 C 9.195312 -4.453125 9.296875 -4.429688 9.359375 -4.390625 C 9.429688 -4.359375 9.492188 -4.316406 9.546875 -4.265625 C 9.660156 -4.128906 9.71875 -3.992188 9.71875 -3.859375 L 9.671875 -3.5 C 9.671875 -3.40625 9.695312 -3.332031 9.75 -3.28125 C 9.84375 -3.175781 9.890625 -3.078125 9.890625 -2.984375 C 9.890625 -2.898438 9.863281 -2.789062 9.8125 -2.65625 C 9.925781 -2.59375 10.023438 -2.5 10.109375 -2.375 C 10.203125 -2.25 10.25 -2.125 10.25 -2 C 10.25 -1.71875 10.128906 -1.46875 9.890625 -1.25 C 9.992188 -1.101562 10.046875 -0.890625 10.046875 -0.609375 C 10.046875 -0.335938 9.96875 -0.109375 9.8125 0.078125 C 9.65625 0.273438 9.445312 0.375 9.1875 0.375 C 9.050781 0.375 8.910156 0.363281 8.765625 0.34375 C 8.785156 0.226562 8.796875 0.117188 8.796875 0.015625 C 8.796875 -0.210938 8.691406 -0.328125 8.484375 -0.328125 C 8.253906 -0.328125 8.023438 -0.28125 7.796875 -0.1875 C 7.253906 0.03125 6.632812 0.140625 5.9375 0.140625 C 5.25 0.140625 4.664062 0.0507812 4.1875 -0.125 C 3.9375 0.0507812 3.640625 0.140625 3.296875 0.140625 Z M 2.640625 -1.9375 C 2.890625 -2.03125 3.023438 -2.351562 3.046875 -2.90625 C 3.078125 -3.445312 3.09375 -4.203125 3.09375 -5.171875 C 3.09375 -6.140625 3.09375 -6.785156 3.09375 -7.109375 C 3.09375 -7.429688 3.085938 -7.6875 3.078125 -7.875 C 3.066406 -8.457031 3.007812 -8.804688 2.90625 -8.921875 C 2.8125 -9.046875 2.722656 -9.128906 2.640625 -9.171875 C 2.640625 -7.460938 2.613281 -6.492188 2.5625 -6.265625 C 2.488281 -6.066406 2.320312 -5.925781 2.0625 -5.84375 C 2.351562 -5.738281 2.519531 -5.613281 2.5625 -5.46875 C 2.613281 -5.238281 2.640625 -4.378906 2.640625 -2.890625 Z M 4.5 -2.015625 C 4.5 -2.003906 4.5 -1.992188 4.5 -1.984375 Z M 4.5 -2.015625 "/></g></g></g><g fill="#ffffff" fill-opacity="1"><g transform="translate(115.367043, 18.593113)"><g><path d="M 4.046875 -0.078125 C 3.804688 0.0664062 3.53125 0.140625 3.21875 0.140625 C 2.914062 0.140625 2.65625 0.0625 2.4375 -0.09375 C 2.1875 0.0625 1.957031 0.140625 1.75 0.140625 C 1.539062 0.140625 1.363281 0.117188 1.21875 0.078125 C 1.082031 0.046875 0.960938 0 0.859375 -0.0625 C 0.648438 -0.1875 0.546875 -0.34375 0.546875 -0.53125 C 0.546875 -0.632812 0.570312 -0.722656 0.625 -0.796875 C 0.738281 -0.710938 0.878906 -0.671875 1.046875 -0.671875 C 1.472656 -0.671875 1.769531 -0.851562 1.9375 -1.21875 L 1.9375 -4.8125 C 1.9375 -5.1875 1.75 -5.472656 1.375 -5.671875 L 1.046875 -5.84375 C 1.484375 -6.039062 1.753906 -6.257812 1.859375 -6.5 C 1.910156 -6.601562 1.9375 -6.734375 1.9375 -6.890625 L 1.9375 -9.984375 C 1.769531 -10.359375 1.472656 -10.546875 1.046875 -10.546875 C 0.878906 -10.546875 0.738281 -10.503906 0.625 -10.421875 C 0.570312 -10.492188 0.546875 -10.578125 0.546875 -10.671875 C 0.546875 -10.773438 0.570312 -10.867188 0.625 -10.953125 C 0.6875 -11.035156 0.765625 -11.101562 0.859375 -11.15625 C 1.085938 -11.289062 1.34375 -11.359375 1.625 -11.359375 C 1.914062 -11.359375 2.1875 -11.28125 2.4375 -11.125 C 2.65625 -11.28125 2.914062 -11.359375 3.21875 -11.359375 C 3.53125 -11.359375 3.804688 -11.28125 4.046875 -11.125 C 4.285156 -11.28125 4.546875 -11.359375 4.828125 -11.359375 C 5.242188 -11.359375 5.539062 -11.222656 5.71875 -10.953125 C 5.769531 -10.859375 5.796875 -10.757812 5.796875 -10.65625 C 5.796875 -10.5625 5.769531 -10.484375 5.71875 -10.421875 C 5.601562 -10.503906 5.46875 -10.546875 5.3125 -10.546875 C 4.9375 -10.546875 4.679688 -10.363281 4.546875 -10 L 4.546875 -6.234375 L 7.921875 -10.234375 C 7.921875 -10.453125 7.796875 -10.5625 7.546875 -10.5625 C 7.304688 -10.5625 7.109375 -10.515625 6.953125 -10.421875 C 6.898438 -10.503906 6.875 -10.613281 6.875 -10.75 C 6.875 -10.894531 6.945312 -11.03125 7.09375 -11.15625 C 7.238281 -11.289062 7.441406 -11.359375 7.703125 -11.359375 C 7.960938 -11.359375 8.175781 -11.296875 8.34375 -11.171875 C 8.519531 -11.296875 8.710938 -11.359375 8.921875 -11.359375 C 9.128906 -11.359375 9.316406 -11.296875 9.484375 -11.171875 C 9.648438 -11.296875 9.816406 -11.359375 9.984375 -11.359375 C 10.160156 -11.359375 10.296875 -11.34375 10.390625 -11.3125 C 10.492188 -11.28125 10.582031 -11.238281 10.65625 -11.1875 C 10.832031 -11.0625 10.921875 -10.921875 10.921875 -10.765625 C 10.921875 -10.609375 10.894531 -10.492188 10.84375 -10.421875 C 10.738281 -10.453125 10.617188 -10.46875 10.484375 -10.46875 C 10.222656 -10.46875 10.03125 -10.441406 9.90625 -10.390625 C 9.78125 -10.335938 9.660156 -10.273438 9.546875 -10.203125 C 9.429688 -10.140625 9.3125 -10.0625 9.1875 -9.96875 L 8.859375 -9.71875 C 8.742188 -9.632812 8.648438 -9.554688 8.578125 -9.484375 L 6.90625 -7.515625 L 10 -1.890625 C 10.375 -1.203125 10.675781 -0.8125 10.90625 -0.71875 C 10.988281 -0.6875 11.097656 -0.671875 11.234375 -0.671875 C 11.367188 -0.671875 11.488281 -0.710938 11.59375 -0.796875 C 11.644531 -0.722656 11.671875 -0.632812 11.671875 -0.53125 C 11.671875 -0.4375 11.644531 -0.347656 11.59375 -0.265625 C 11.539062 -0.179688 11.46875 -0.113281 11.375 -0.0625 C 11.175781 0.0703125 10.921875 0.140625 10.609375 0.140625 C 10.304688 0.140625 10.03125 0.0625 9.78125 -0.09375 C 9.53125 0.0625 9.242188 0.140625 8.921875 0.140625 C 8.609375 0.140625 8.328125 0.0625 8.078125 -0.09375 C 7.828125 0.0625 7.550781 0.140625 7.25 0.140625 C 6.957031 0.140625 6.726562 0.078125 6.5625 -0.046875 C 6.40625 -0.179688 6.328125 -0.34375 6.328125 -0.53125 C 6.328125 -0.632812 6.351562 -0.722656 6.40625 -0.796875 C 6.507812 -0.710938 6.644531 -0.671875 6.8125 -0.671875 C 7.125 -0.671875 7.351562 -0.789062 7.5 -1.03125 L 5.234375 -5.5625 L 4.546875 -4.765625 L 4.546875 -1.21875 C 4.679688 -0.851562 4.9375 -0.671875 5.3125 -0.671875 C 5.46875 -0.671875 5.601562 -0.710938 5.71875 -0.796875 C 5.769531 -0.734375 5.796875 -0.648438 5.796875 -0.546875 C 5.796875 -0.453125 5.765625 -0.359375 5.703125 -0.265625 C 5.648438 -0.179688 5.582031 -0.109375 5.5 -0.046875 C 5.3125 0.078125 5.085938 0.140625 4.828125 0.140625 C 4.546875 0.140625 4.285156 0.0664062 4.046875 -0.078125 Z M 2.625 -1.9375 C 2.875 -2.03125 3.007812 -2.351562 3.03125 -2.90625 C 3.0625 -3.445312 3.078125 -4.203125 3.078125 -5.171875 C 3.078125 -6.140625 3.078125 -6.785156 3.078125 -7.109375 C 3.078125 -7.429688 3.070312 -7.6875 3.0625 -7.875 C 3.050781 -8.457031 2.992188 -8.804688 2.890625 -8.921875 C 2.796875 -9.046875 2.707031 -9.128906 2.625 -9.171875 C 2.625 -7.460938 2.597656 -6.492188 2.546875 -6.265625 C 2.472656 -6.066406 2.304688 -5.925781 2.046875 -5.84375 C 2.335938 -5.738281 2.503906 -5.613281 2.546875 -5.46875 C 2.597656 -5.238281 2.625 -4.378906 2.625 -2.890625 Z M 7.796875 -1.9375 C 7.859375 -2.019531 7.890625 -2.132812 7.890625 -2.28125 C 7.890625 -2.613281 7.773438 -2.992188 7.546875 -3.421875 L 6.109375 -6.359375 L 5.78125 -6.015625 Z M 7.796875 -1.9375 "/></g></g></g><g fill="#ffffff" fill-opacity="1"><g transform="translate(126.656514, 18.593113)"><g><path d="M 2.578125 -0.28125 C 2.191406 0.101562 1.820312 0.296875 1.46875 0.296875 C 1.238281 0.296875 1.085938 0.210938 1.015625 0.046875 C 1.128906 -0.0859375 1.1875 -0.289062 1.1875 -0.5625 L 1.1875 -0.671875 C 1.1875 -0.703125 1.179688 -0.726562 1.171875 -0.75 C 0.929688 -0.96875 0.8125 -1.226562 0.8125 -1.53125 C 0.8125 -1.832031 0.953125 -2.140625 1.234375 -2.453125 C 1.148438 -2.617188 1.109375 -2.796875 1.109375 -2.984375 C 1.109375 -3.171875 1.132812 -3.347656 1.1875 -3.515625 C 1.25 -3.679688 1.328125 -3.820312 1.421875 -3.9375 C 1.628906 -4.207031 1.832031 -4.34375 2.03125 -4.34375 C 2.226562 -4.34375 2.367188 -4.265625 2.453125 -4.109375 C 2.273438 -3.921875 2.1875 -3.628906 2.1875 -3.234375 C 2.1875 -2.835938 2.242188 -2.492188 2.359375 -2.203125 C 2.472656 -1.910156 2.632812 -1.660156 2.84375 -1.453125 C 3.289062 -0.992188 3.863281 -0.765625 4.5625 -0.765625 C 5.03125 -0.765625 5.429688 -0.898438 5.765625 -1.171875 C 6.117188 -1.453125 6.296875 -1.84375 6.296875 -2.34375 C 6.296875 -2.695312 6.210938 -2.984375 6.046875 -3.203125 C 5.785156 -3.546875 5.378906 -3.910156 4.828125 -4.296875 C 4.398438 -4.585938 4.0625 -4.734375 3.8125 -4.734375 C 3.550781 -4.734375 3.265625 -4.628906 2.953125 -4.421875 C 3.035156 -4.671875 3.078125 -4.90625 3.078125 -5.125 C 3.078125 -5.164062 3.03125 -5.226562 2.9375 -5.3125 L 2.65625 -5.546875 C 1.800781 -6.335938 1.296875 -7.070312 1.140625 -7.75 C 1.085938 -7.976562 1.0625 -8.269531 1.0625 -8.625 C 1.0625 -8.976562 1.144531 -9.335938 1.3125 -9.703125 C 1.488281 -10.066406 1.726562 -10.375 2.03125 -10.625 C 2.664062 -11.164062 3.46875 -11.4375 4.4375 -11.4375 C 5.03125 -11.4375 5.578125 -11.34375 6.078125 -11.15625 C 6.285156 -11.070312 6.523438 -11.03125 6.796875 -11.03125 C 6.898438 -11.03125 7 -11.035156 7.09375 -11.046875 C 7.1875 -11.054688 7.265625 -11.109375 7.328125 -11.203125 C 7.390625 -11.285156 7.421875 -11.363281 7.421875 -11.4375 C 7.421875 -11.519531 7.410156 -11.582031 7.390625 -11.625 C 7.429688 -11.644531 7.476562 -11.65625 7.53125 -11.65625 C 7.59375 -11.65625 7.660156 -11.632812 7.734375 -11.59375 C 7.816406 -11.550781 7.882812 -11.492188 7.9375 -11.421875 C 8.070312 -11.253906 8.140625 -11.066406 8.140625 -10.859375 C 8.140625 -10.648438 8.082031 -10.488281 7.96875 -10.375 C 8.132812 -10.226562 8.21875 -10.003906 8.21875 -9.703125 C 8.21875 -9.398438 8.113281 -9.144531 7.90625 -8.9375 C 7.945312 -8.800781 7.96875 -8.679688 7.96875 -8.578125 C 7.96875 -8.472656 7.945312 -8.375 7.90625 -8.28125 C 7.875 -8.1875 7.820312 -8.101562 7.75 -8.03125 C 7.613281 -7.882812 7.484375 -7.8125 7.359375 -7.8125 C 7.148438 -7.8125 6.976562 -7.84375 6.84375 -7.90625 C 6.925781 -8.101562 6.96875 -8.3125 6.96875 -8.53125 C 6.96875 -8.757812 6.914062 -8.992188 6.8125 -9.234375 C 6.71875 -9.472656 6.582031 -9.679688 6.40625 -9.859375 C 6.019531 -10.210938 5.519531 -10.390625 4.90625 -10.390625 C 4.507812 -10.390625 4.1875 -10.269531 3.9375 -10.03125 C 3.707031 -9.8125 3.59375 -9.539062 3.59375 -9.21875 C 3.59375 -8.976562 3.648438 -8.78125 3.765625 -8.625 C 3.972656 -8.34375 4.300781 -8.050781 4.75 -7.75 L 5.09375 -7.515625 C 5.289062 -7.398438 5.421875 -7.34375 5.484375 -7.34375 C 5.554688 -7.34375 5.625 -7.347656 5.6875 -7.359375 C 5.757812 -7.378906 5.835938 -7.398438 5.921875 -7.421875 C 6.097656 -7.484375 6.269531 -7.566406 6.4375 -7.671875 L 6.34375 -7.265625 C 6.3125 -7.117188 6.296875 -7.015625 6.296875 -6.953125 C 6.296875 -6.847656 6.347656 -6.753906 6.453125 -6.671875 C 7.367188 -5.878906 7.976562 -5.21875 8.28125 -4.6875 C 8.550781 -4.226562 8.6875 -3.726562 8.6875 -3.1875 C 8.6875 -2.65625 8.597656 -2.191406 8.421875 -1.796875 C 8.242188 -1.410156 7.988281 -1.070312 7.65625 -0.78125 C 6.914062 -0.113281 5.953125 0.21875 4.765625 0.21875 C 3.921875 0.21875 3.191406 0.0507812 2.578125 -0.28125 Z M 2.078125 -9.171875 C 1.890625 -9.085938 1.796875 -8.882812 1.796875 -8.5625 C 1.796875 -7.882812 2.242188 -7.144531 3.140625 -6.34375 L 3.578125 -5.953125 C 3.734375 -5.816406 3.800781 -5.710938 3.78125 -5.640625 C 3.769531 -5.566406 3.753906 -5.503906 3.734375 -5.453125 C 3.722656 -5.410156 3.710938 -5.367188 3.703125 -5.328125 C 3.691406 -5.296875 3.679688 -5.269531 3.671875 -5.25 C 3.847656 -5.351562 3.988281 -5.40625 4.09375 -5.40625 C 4.300781 -5.40625 4.503906 -5.347656 4.703125 -5.234375 C 5.640625 -4.640625 6.28125 -4.113281 6.625 -3.65625 C 6.863281 -3.320312 6.988281 -2.898438 7 -2.390625 C 7 -2.210938 6.988281 -2.0625 6.96875 -1.9375 C 7.226562 -2.101562 7.359375 -2.367188 7.359375 -2.734375 C 7.359375 -3.085938 7.304688 -3.359375 7.203125 -3.546875 C 7.109375 -3.734375 7 -3.898438 6.875 -4.046875 C 6.75 -4.203125 6.582031 -4.367188 6.375 -4.546875 C 6.175781 -4.722656 5.925781 -4.914062 5.625 -5.125 L 4.59375 -5.828125 C 3.738281 -6.390625 3.085938 -6.984375 2.640625 -7.609375 C 2.242188 -8.160156 2.054688 -8.679688 2.078125 -9.171875 Z M 2.078125 -9.171875 "/></g></g></g><g fill="#ffffff" fill-opacity="1"><g transform="translate(135.850731, 18.593113)"><g><path d="M 4.140625 -0.09375 C 3.890625 0.0625 3.601562 0.140625 3.28125 0.140625 C 2.96875 0.140625 2.6875 0.0625 2.4375 -0.09375 C 2.1875 0.0625 1.957031 0.140625 1.75 0.140625 C 1.539062 0.140625 1.363281 0.117188 1.21875 0.078125 C 1.082031 0.046875 0.960938 0 0.859375 -0.0625 C 0.648438 -0.1875 0.546875 -0.34375 0.546875 -0.53125 C 0.546875 -0.632812 0.570312 -0.722656 0.625 -0.796875 C 0.738281 -0.710938 0.878906 -0.671875 1.046875 -0.671875 C 1.472656 -0.671875 1.769531 -0.851562 1.9375 -1.21875 L 1.9375 -4.8125 C 1.9375 -5.03125 1.890625 -5.195312 1.796875 -5.3125 C 1.648438 -5.488281 1.398438 -5.664062 1.046875 -5.84375 C 1.378906 -6 1.59375 -6.132812 1.6875 -6.25 C 1.851562 -6.4375 1.9375 -6.648438 1.9375 -6.890625 L 1.9375 -9.984375 C 1.769531 -10.359375 1.472656 -10.546875 1.046875 -10.546875 C 0.878906 -10.546875 0.738281 -10.503906 0.625 -10.421875 C 0.570312 -10.492188 0.546875 -10.578125 0.546875 -10.671875 C 0.546875 -10.773438 0.570312 -10.867188 0.625 -10.953125 C 0.6875 -11.035156 0.765625 -11.101562 0.859375 -11.15625 C 1.085938 -11.289062 1.347656 -11.359375 1.640625 -11.359375 C 1.929688 -11.359375 2.195312 -11.28125 2.4375 -11.125 C 2.695312 -11.28125 2.984375 -11.359375 3.296875 -11.359375 C 3.609375 -11.359375 3.890625 -11.28125 4.140625 -11.125 C 4.390625 -11.28125 4.617188 -11.359375 4.828125 -11.359375 C 5.046875 -11.359375 5.222656 -11.335938 5.359375 -11.296875 C 5.492188 -11.265625 5.613281 -11.21875 5.71875 -11.15625 C 5.925781 -11.03125 6.03125 -10.875 6.03125 -10.6875 C 6.03125 -10.582031 6.003906 -10.492188 5.953125 -10.421875 C 5.847656 -10.503906 5.710938 -10.546875 5.546875 -10.546875 C 5.109375 -10.546875 4.804688 -10.359375 4.640625 -9.984375 L 4.640625 -6.890625 C 4.640625 -6.648438 4.691406 -6.472656 4.796875 -6.359375 C 4.953125 -6.171875 5.195312 -6 5.53125 -5.84375 C 5.175781 -5.664062 4.953125 -5.519531 4.859375 -5.40625 C 4.710938 -5.226562 4.640625 -5.03125 4.640625 -4.8125 L 4.640625 -1.21875 C 4.804688 -0.851562 5.109375 -0.671875 5.546875 -0.671875 C 5.710938 -0.671875 5.847656 -0.710938 5.953125 -0.796875 C 6.003906 -0.722656 6.03125 -0.632812 6.03125 -0.53125 C 6.03125 -0.4375 6 -0.347656 5.9375 -0.265625 C 5.882812 -0.179688 5.8125 -0.113281 5.71875 -0.0625 C 5.488281 0.0703125 5.226562 0.140625 4.9375 0.140625 C 4.65625 0.140625 4.390625 0.0625 4.140625 -0.09375 Z M 2.640625 -1.9375 C 2.890625 -2.03125 3.023438 -2.351562 3.046875 -2.90625 C 3.078125 -3.445312 3.09375 -4.203125 3.09375 -5.171875 C 3.09375 -6.140625 3.09375 -6.785156 3.09375 -7.109375 C 3.09375 -7.429688 3.085938 -7.6875 3.078125 -7.875 C 3.066406 -8.457031 3.007812 -8.804688 2.90625 -8.921875 C 2.8125 -9.046875 2.722656 -9.128906 2.640625 -9.171875 C 2.640625 -7.460938 2.613281 -6.492188 2.5625 -6.265625 C 2.488281 -6.066406 2.320312 -5.925781 2.0625 -5.84375 C 2.351562 -5.738281 2.519531 -5.613281 2.5625 -5.46875 C 2.613281 -5.238281 2.640625 -4.378906 2.640625 -2.890625 Z M 2.640625 -1.9375 "/></g></g></g></svg>